<svg width="512" height="512" viewBox="0 0 512 512" fill="none" xmlns="http://www.w3.org/2000/svg">
<g clip-path="url(#clip0_11_45)">
<path d="M171.867 511.545C167.108 510.091 163.086 506.91 161.383 503.252L160.13 500.559L160.124 458.514L160.119 416.469L108.458 416.28C57.4533 416.093 56.7311 416.076 51.6059 414.912C37.9394 411.808 27.2502 405.857 17.9138 396.152C8.09349 385.944 2.16848 373.579 0.49084 359.79C0.0336823 356.032 -0.0802911 315.964 0.0509255 205.138C0.218783 63.3791 0.278206 55.3488 1.18764 51.5517C4.27573 38.6582 9.46156 28.8393 17.8082 20.0819C27.4067 10.011 38.748 3.78828 52.6803 0.948083C57.0852 0.0501742 67.8281 0 255.698 0C445.196 0 454.281 0.0433652 458.871 0.96948C461.514 1.50269 465.82 2.65373 468.44 3.52732C487.088 9.74572 502.524 25.1893 508.742 43.8481C512.219 54.2793 511.997 43.1305 511.997 207.809C511.997 340.61 511.904 357.921 511.168 362.13C506.066 391.315 483.509 412.574 454.171 415.847C450.786 416.225 425.131 416.427 378.931 416.442L308.828 416.463L258.028 454.771C230.089 475.84 202.576 496.685 196.89 501.092C184.149 510.966 182.154 512.06 176.997 511.998C174.909 511.973 172.601 511.769 171.867 511.545ZM248.474 402.553C269.598 386.919 287.975 373.58 289.311 372.911C292.889 371.12 298.179 369.499 302.42 368.895C304.752 368.562 333.176 368.356 377.976 368.345C453.233 368.327 452.37 368.351 456.736 366.066C458.72 365.027 461.417 362.203 462.519 360.012C462.976 359.105 463.611 356.821 463.932 354.937C464.346 352.505 464.471 309.42 464.363 206.207C464.218 67.4091 464.168 60.7726 463.241 58.0451C462.006 54.4104 458.845 50.9659 455.255 49.3418L452.464 48.0793L257.835 47.9174C110.586 47.7949 62.4901 47.9079 60.2683 48.3813C56.1953 49.2493 53.7701 50.5966 51.4956 53.2552C47.3787 58.067 47.7202 44.0399 47.7202 208.344V355.253L48.9861 358.394C50.6146 362.436 53.1565 365.219 56.6685 366.808L59.4673 368.074L112.597 368.358L165.726 368.642L171.066 370.077C174.002 370.867 178.808 372.725 181.745 374.207C191.39 379.074 197.458 385.146 202.308 394.784C206.599 403.312 207.257 406.573 207.513 420.592L207.732 432.511L208.9 431.745C209.542 431.324 227.351 418.188 248.474 402.553ZM250.103 335.754C240.051 333.935 231.465 327.636 227.222 318.967C222.887 310.109 223.235 297.147 228.053 288.041C230.278 283.836 235.815 278.279 239.947 276.106C249.378 271.145 261.253 270.987 271.032 275.693C278.575 279.323 285.046 287.271 286.914 295.203C287.979 299.723 287.971 308.785 286.898 312.927C284.13 323.613 276.325 331.764 265.844 334.913C262.331 335.969 253.807 336.424 250.103 335.754ZM254.097 239.783C244.772 238.302 238.205 233.795 234.817 226.553C232.537 221.677 232.101 218.24 232.316 206.805C232.556 194.049 233.162 192.097 238.561 186.676C241.651 183.573 245.059 181.39 266.378 168.863C281.747 159.832 291.398 153.834 292.645 152.538C298.919 146.016 296.043 133.03 287.469 129.172C285.505 128.288 282.788 128.198 253.563 128.046C231.954 127.934 221.164 128.064 219.829 128.456C217.584 129.115 215.117 131.742 215.117 133.473C215.117 135.013 211.937 139.842 208.803 143.062C203.831 148.168 198.216 150.168 190.184 149.692C185.838 149.435 184.827 149.169 181.374 147.369C176.517 144.838 172.028 140.454 169.962 136.225C168.491 133.214 168.397 132.631 168.412 126.609L168.428 120.198L171.467 113.874C176.383 103.646 180.687 97.9031 187.618 92.3212C195.556 85.9288 205.718 81.8962 217.52 80.455C223.845 79.6826 279.544 79.665 286.556 80.4331C297.672 81.6508 307.556 85.097 316.312 90.8077C318.069 91.9541 322.045 95.43 325.147 98.532C332.996 106.381 337.437 113.458 340.609 123.167C347.955 145.659 342.416 170.175 326.261 186.663C320.125 192.926 315.127 196.309 296.726 206.653L279.944 216.087L279.343 219.598C278.074 227.013 273.464 233.839 267.752 236.761C263.404 238.984 257.415 240.31 254.097 239.783Z" fill="#121212"/>
</g>
<defs>
<clipPath id="clip0_11_45">
<rect width="512" height="512" fill="white"/>
</clipPath>
</defs>
</svg>
