<svg width="128" height="128" viewBox="0 0 128 128" fill="none" xmlns="http://www.w3.org/2000/svg">
<path d="M3.94704 65.0505C-1.70672 68.2754 -1.18137 76.8754 4.84764 79.3754L39.946 94.0002V119.825C39.946 124.35 43.5984 128 48.1264 128C50.553 128 52.8546 126.925 54.4056 125.05L69.9159 106.475L100.912 119.375C105.64 121.35 111.118 118.25 111.894 113.2L127.904 9.20089C128.38 6.17591 127.054 3.12593 124.527 1.40095C122.001 -0.324042 118.698 -0.474041 116.022 1.05095L3.94704 65.0505ZM16.9807 71.4254L102.413 22.6508L47.476 84.0003L47.7762 84.2503L16.9807 71.4254ZM100.811 106.35L59.1337 88.9753L112.694 29.1507L100.811 106.35Z" fill="#636363"/>
</svg>
