<svg width="512" height="512" viewBox="0 0 512 512" fill="none" xmlns="http://www.w3.org/2000/svg">
<g clip-path="url(#clip0_8_41)">
<path d="M21.7233 511.294C11.1645 508.96 2.85808 500.874 0.711134 490.842C-2.42611 476.181 5.31367 420.571 14.1889 394.004C19.6784 377.572 27.6656 363.036 37.8863 350.877C55.8276 329.533 83.0956 318.088 110.535 320.385C124.926 321.59 136.368 325.211 148.76 332.484C161.009 339.673 169.431 347.533 177.026 358.863C186.703 373.297 191.031 386.932 191.573 404.688C191.912 415.8 191.381 421.168 189.044 430.27C185.371 444.57 176.57 460.179 166.689 469.916C155.703 480.742 137.082 491.549 118.769 497.727C92.7085 506.519 35.99 514.448 21.7233 511.294ZM94.1738 445.405C105.095 442.918 112.251 439.99 117.976 435.667C123.071 431.82 126.729 424.781 127.802 416.761C129.239 406.026 124.15 394.05 115.903 388.758C103.067 380.52 83.7698 383.435 75.6879 394.833C69.785 403.157 66.3809 413.947 65.2704 427.851C64.3641 439.199 66.5167 444.314 73.1057 446.469C75.5358 447.264 88.9993 446.584 94.1738 445.405ZM242.435 511.272C234.846 509.168 229.653 505.11 226.571 498.876L224.554 494.795L224.228 429.108C223.95 373.308 223.778 362.779 223.083 359.151C219.469 340.267 212.552 326.782 199.846 313.85C188.864 302.672 174.868 294.53 160.235 290.806C149.865 288.167 152.886 288.28 83.6401 287.94L18.5207 287.621L15.5589 286.421C8.7151 283.65 3.99523 279.013 1.60183 272.709C-0.217839 267.916 -0.14373 259.581 1.75916 255.014C3.25603 251.422 53.8714 166.076 59.0341 158.439C60.8204 155.797 64.6856 151.224 67.6234 148.277C77.6817 138.189 88.668 132.363 103.496 129.254C109.181 128.063 109.892 128.043 154.753 127.868L200.244 127.69L205.832 119.443C227.719 87.1415 252.233 61.5379 277.942 44.1281C286.511 38.3253 295.564 33.1766 307.822 27.1345C347.488 7.58213 382.114 0.0110769 431.922 1.09318e-05C451.245 -0.00425617 465.905 1.24042 481.358 4.19722C495.48 6.89945 504.911 16.2405 507.746 30.3348C512.441 53.6785 513.292 85.3709 510.088 117.603C506.967 149.013 499.057 175.415 483.459 206.493C471.13 231.057 460.198 246.579 442.365 264.841C426.939 280.639 410.715 294.052 390.956 307.345L383.883 312.103V356.259C383.883 397.985 383.825 400.759 382.815 406.663C379.671 425.055 370.63 440.037 355.952 451.179C349.985 455.707 260.963 508.796 256.536 510.465C252.439 512.01 246.355 512.358 242.435 511.272ZM269.924 310.286C299.331 301.216 328.704 288.894 350.021 276.686C368.331 266.199 388.56 250.637 405.44 234.05C422.42 217.365 432.326 203.843 442.059 184.062C456.497 154.719 462.178 131.493 464.021 94.2713C464.489 84.826 464.49 79.0053 464.027 70.438C463.451 59.8008 462.578 50.6126 462.064 49.7813C461.48 48.8359 445.009 47.9428 428.721 47.9733C392.465 48.0413 367.143 52.7761 339.048 64.7409C306.474 78.6127 283.274 97.1523 256.865 130.414C234.077 159.117 216.801 194.116 201.269 243.048C199.545 248.479 198.134 253.176 198.134 253.484C198.134 253.793 199.995 255.097 202.27 256.382C215.092 263.627 228.983 274.415 236.652 283.083C243.381 290.689 250.831 301.127 255.764 309.86C257.034 312.109 258.339 313.866 258.662 313.764C258.985 313.662 264.053 312.097 269.924 310.286ZM362.285 183.201C349.808 181.383 338.817 173.617 332.969 162.487C329.896 156.638 328.69 151.456 328.673 144.026C328.657 136.582 329.479 132.872 332.577 126.411C337.272 116.618 344.476 109.828 353.746 106.457C364.357 102.598 376.201 103.218 386.462 108.168C398.89 114.164 407.903 128.922 407.903 143.276C407.903 168.352 386.847 186.779 362.285 183.201Z" fill="#059669"/>
</g>
<defs>
<clipPath id="clip0_8_41">
<rect width="512" height="512" fill="white"/>
</clipPath>
</defs>
</svg>
