<svg width="1024" height="333" viewBox="0 0 1024 333" fill="none" xmlns="http://www.w3.org/2000/svg">
<path d="M182.679 55.7477C194.207 55.7477 203.552 46.4022 203.552 34.8738C203.552 23.3455 194.207 14 182.679 14C171.15 14 161.805 23.3455 161.805 34.8738C161.805 46.4022 171.15 55.7477 182.679 55.7477Z" fill="#1EA5FC"/>
<path d="M73.3773 253.482C60.4101 253.482 48.7808 251.321 38.4893 246.999C28.1978 242.47 20.0676 236.295 14.0985 228.474C8.1295 220.447 4.83624 211.287 4.21875 200.996H33.2407C34.064 209.435 37.9747 216.33 44.9729 221.682C52.1769 227.033 61.5422 229.709 73.0686 229.709C83.7717 229.709 92.2107 227.342 98.3856 222.608C104.56 217.874 107.648 211.905 107.648 204.701C107.648 197.291 104.355 191.836 97.7681 188.337C91.1816 184.632 80.993 181.03 67.2025 177.531C54.6469 174.238 44.3554 170.945 36.3281 167.651C28.5066 164.152 21.7142 159.109 15.951 152.523C10.3936 145.731 7.61493 136.88 7.61493 125.971C7.61493 117.326 10.1878 109.402 15.3335 102.198C20.4793 94.9937 27.7862 89.3334 37.2543 85.2168C46.7225 80.8944 57.5285 78.7332 69.6724 78.7332C88.4029 78.7332 103.531 83.4673 115.058 92.9354C126.584 102.404 132.759 115.371 133.582 131.837H105.487C104.869 122.986 101.267 115.885 94.6807 110.534C88.3 105.182 79.6551 102.506 68.7462 102.506C58.6606 102.506 50.6332 104.668 44.6642 108.99C38.6951 113.313 35.7106 118.973 35.7106 125.971C35.7106 131.528 37.4602 136.16 40.9593 139.864C44.6642 143.364 49.1924 146.245 54.544 148.509C60.1014 150.568 67.717 152.935 77.391 155.61C89.5349 158.904 99.4147 162.197 107.03 165.49C114.646 168.578 121.13 173.312 126.481 179.692C132.039 186.073 134.92 194.409 135.126 204.701C135.126 213.963 132.553 222.299 127.407 229.709C122.262 237.119 114.955 242.985 105.487 247.307C96.2244 251.424 85.5213 253.482 73.3773 253.482ZM196.709 81.5119V250.703H168.613V81.5119H196.709ZM272.688 104.668V204.392C272.688 212.625 274.438 218.491 277.937 221.99C281.436 225.284 287.508 226.93 296.153 226.93H316.839V250.703H291.522C275.879 250.703 264.146 247.101 256.325 239.897C248.503 232.693 244.593 220.858 244.593 204.392V104.668H222.672V81.5119H244.593V38.9053H272.688V81.5119H316.839V104.668H272.688ZM499.077 159.624C499.077 164.976 498.769 170.636 498.151 176.605H362.921C363.95 193.277 369.611 206.347 379.902 215.815C390.399 225.078 403.058 229.709 417.878 229.709C430.022 229.709 440.107 226.93 448.135 221.373C456.368 215.61 462.131 207.994 465.424 198.526H495.681C491.153 214.786 482.096 228.062 468.512 238.354C454.927 248.439 438.049 253.482 417.878 253.482C401.823 253.482 387.415 249.88 374.654 242.676C362.098 235.472 352.218 225.284 345.014 212.11C337.81 198.732 334.208 183.294 334.208 165.799C334.208 148.303 337.707 132.969 344.705 119.796C351.704 106.623 361.48 96.5374 374.036 89.5392C386.797 82.3352 401.411 78.7332 417.878 78.7332C433.932 78.7332 448.135 82.2323 460.484 89.2305C472.834 96.2287 482.302 105.903 488.889 118.252C495.681 130.396 499.077 144.187 499.077 159.624ZM470.055 153.758C470.055 143.055 467.688 133.895 462.954 126.28C458.22 118.458 451.737 112.592 443.503 108.681C435.476 104.565 426.523 102.506 416.643 102.506C402.441 102.506 390.297 107.035 380.211 116.091C370.331 125.148 364.671 137.703 363.23 153.758H470.055Z" fill="#3D3D3D"/>
<path d="M578.153 102.815C583.298 94.788 590.399 88.3043 599.456 83.3644C608.512 78.4245 619.113 75.9546 631.257 75.9546C645.459 75.9546 658.323 79.5566 669.849 86.7606C681.376 93.9646 690.432 104.256 697.019 117.635C703.811 131.014 707.207 146.554 707.207 164.255C707.207 181.957 703.811 197.6 697.019 211.184C690.432 224.563 681.376 234.958 669.849 242.367C658.323 249.571 645.459 253.173 631.257 253.173C619.318 253.173 608.718 250.704 599.456 245.764C590.399 240.824 583.298 234.443 578.153 226.622V332.829H525.357V78.4245H578.153V102.815ZM653.486 164.255C653.486 151.082 649.781 140.791 642.371 133.381C635.167 125.765 626.214 121.957 615.511 121.957C605.013 121.957 596.06 125.765 588.65 133.381C581.446 140.997 577.844 151.391 577.844 164.564C577.844 177.737 581.446 188.131 588.65 195.747C596.06 203.363 605.013 207.171 615.511 207.171C626.008 207.171 634.961 203.363 642.371 195.747C649.781 187.926 653.486 177.428 653.486 164.255ZM781.522 107.138C787.697 97.6696 795.416 90.2597 804.678 84.9082C813.94 79.3508 824.232 76.5721 835.552 76.5721V132.455H821.041C807.868 132.455 797.988 135.336 791.402 141.1C784.815 146.657 781.522 156.537 781.522 170.739V250.704H728.727V78.4245H781.522V107.138ZM933.038 253.173C916.16 253.173 900.929 249.571 887.344 242.367C873.965 235.163 863.365 224.872 855.543 211.493C847.928 198.114 844.12 182.471 844.12 164.564C844.12 146.863 848.031 131.323 855.852 117.944C863.674 104.359 874.377 93.9646 887.961 86.7606C901.546 79.5566 916.778 75.9546 933.656 75.9546C950.533 75.9546 965.765 79.5566 979.35 86.7606C992.934 93.9646 1003.64 104.359 1011.46 117.944C1019.28 131.323 1023.19 146.863 1023.19 164.564C1023.19 182.265 1019.18 197.908 1011.15 211.493C1003.33 224.872 992.523 235.163 978.732 242.367C965.147 249.571 949.916 253.173 933.038 253.173ZM933.038 207.479C943.124 207.479 951.666 203.774 958.664 196.365C965.868 188.955 969.47 178.355 969.47 164.564C969.47 150.773 965.971 140.173 958.973 132.763C952.18 125.354 943.741 121.649 933.656 121.649C923.364 121.649 914.822 125.354 908.03 132.763C901.237 139.967 897.841 150.568 897.841 164.564C897.841 178.355 901.135 188.955 907.721 196.365C914.513 203.774 922.952 207.479 933.038 207.479Z" fill="#1EA5FC"/>
</svg>
